<?xml version="1.0" encoding="utf-8"?><svg xmlns="http://www.w3.org/2000/svg" xmlns:xlink="http://www.w3.org/1999/xlink"><symbol viewBox="0 0 12 10" id="arrow-back" xmlns="http://www.w3.org/2000/svg"><path fill-rule="evenodd" clip-rule="evenodd" d="M3.207 5.5l2.147 2.146-.708.708L1.293 5l3.353-3.354.708.708L3.207 4.5H11v1H3.207z"/></symbol><symbol viewBox="0 0 344.96 344.96" id="check" xmlns="http://www.w3.org/2000/svg"><g data-name="Слой 2"><path d="M321.85 86.24l-40-23.11-23.1-40H212.5L172.48 0l-40 23.11H86.24l-23.11 40-40 23.1v46.21L0 172.48l23.11 40v46.21l40 23.11 23.11 40h46.21l40 23.1 40-23.11h46.21l23.11-40 40-23.11V212.5l23.11-40-23.11-40V86.24zM156.91 243.07a16.79 16.79 0 0 1-23.34 0l-50.45-50.44a16.19 16.19 0 0 1 0-22.89l13.35-13.35a16.19 16.19 0 0 1 22.89 0l25.87 25.87 80.34-80.35a16.19 16.19 0 0 1 22.89 0l13.35 13.35a16.19 16.19 0 0 1 0 22.89z" data-name="Capa 1"/></g></symbol><symbol viewBox="0 0 30 37" id="doc" xmlns="http://www.w3.org/2000/svg"><path d="M0 0h22.518L30 7.095V37H0V0z"/></symbol><symbol viewBox="0 0 21 21" id="envelope" xmlns="http://www.w3.org/2000/svg"><g clip-path="url(#dclip0)"><path d="M2.016 7.336c.265.187 1.066.744 2.402 1.67 1.336.926 2.36 1.638 3.07 2.138.078.055.244.174.498.358.254.183.465.332.633.445.168.113.371.24.61.381.238.14.462.246.673.316.211.07.407.105.586.105h.024c.18 0 .375-.035.586-.105.21-.07.435-.176.674-.316a12.838 12.838 0 0 0 1.242-.826c.254-.184.42-.303.498-.358.718-.5 2.547-1.77 5.484-3.808a5.567 5.567 0 0 0 1.43-1.442c.383-.562.574-1.152.574-1.769 0-.516-.186-.957-.557-1.324a1.811 1.811 0 0 0-1.318-.551H1.875c-.602 0-1.065.203-1.389.61C.162 3.265 0 3.772 0 4.382c0 .492.215 1.025.645 1.6.43.574.886 1.025 1.37 1.353z"/><path d="M19.828 8.59c-2.562 1.734-4.508 3.082-5.836 4.043a27.59 27.59 0 0 1-1.084.767 6.7 6.7 0 0 1-1.107.563c-.461.191-.89.287-1.289.287h-.024c-.398 0-.828-.096-1.289-.287a6.698 6.698 0 0 1-1.107-.563c-.277-.183-.639-.44-1.084-.767-1.055-.773-2.996-2.121-5.824-4.043A6.207 6.207 0 0 1 0 7.57v9.305c0 .516.184.957.55 1.324.368.367.81.551 1.325.551h17.25c.516 0 .957-.184 1.324-.55.368-.368.551-.81.551-1.325V7.57a6.463 6.463 0 0 1-1.172 1.02z"/></g><defs><clipPath id="dclip0"><path d="M0 0h21v21H0z"/></clipPath></defs></symbol><symbol viewBox="0 0 23 24" id="fb" xmlns="http://www.w3.org/2000/svg"><path d="M11.5 0C5.159 0 0 5.217 0 11.63c0 6.413 5.159 11.63 11.5 11.63 6.34 0 11.5-5.217 11.5-11.63C23 5.217 17.841 0 11.5 0zm2.86 12.04h-1.871v6.744H9.717V12.04H8.399V9.656h1.318V8.114c0-1.104.518-2.83 2.797-2.83l2.055.009v2.314h-1.491c-.243 0-.588.122-.588.649v1.4h2.112l-.242 2.384z"/></symbol><symbol viewBox="0 0 23 24" id="instagram" xmlns="http://www.w3.org/2000/svg"><path fill-rule="evenodd" clip-rule="evenodd" d="M11.5 23.26c6.351 0 11.5-5.207 11.5-11.63C23 5.207 17.851 0 11.5 0S0 5.207 0 11.63c0 6.423 5.149 11.63 11.5 11.63zM8.403 11.848c0-1.654 1.33-3 2.966-3 1.635 0 2.966 1.346 2.966 3s-1.33 3-2.966 3c-1.635 0-2.966-1.346-2.966-3zm1.022 0c0 1.084.872 1.967 1.944 1.967a1.958 1.958 0 0 0 1.945-1.967 1.958 1.958 0 0 0-1.945-1.966 1.958 1.958 0 0 0-1.944 1.966zm4.522-5.82H8.791c-1.752 0-3.177 1.441-3.177 3.212v5.216c0 1.771 1.425 3.212 3.177 3.212h5.156c1.752 0 3.177-1.441 3.177-3.212V9.239c0-1.77-1.425-3.212-3.176-3.212zm2.156 8.428c0 1.201-.967 2.18-2.155 2.18H8.79c-1.189 0-2.155-.979-2.155-2.18V9.239c0-1.201.966-2.18 2.155-2.18h5.156c1.189 0 2.156.979 2.156 2.18v5.216zM13.93 8.194a.747.747 0 0 1 .53-.222c.197 0 .39.08.529.222a.765.765 0 0 1 0 1.071.752.752 0 0 1-.53.222.75.75 0 0 1-.749-.757c0-.2.08-.396.22-.536z"/></symbol><symbol viewBox="0 0 17 19" id="mark" xmlns="http://www.w3.org/2000/svg"><path d="M8.23.005C4.455.137 1.319 3.082.957 6.842a7.625 7.625 0 0 0 .152 2.415 7.57 7.57 0 0 0 .51 1.504c.76 1.8 2.516 4.81 6.459 8.087a.659.659 0 0 0 .841 0c3.943-3.272 5.7-6.284 6.463-8.091a7.28 7.28 0 0 0 .51-1.504c.036-.152.051-.238.051-.238A7.576 7.576 0 0 0 8.23.005zm.269 11.344a3.681 3.681 0 1 1-.001-7.362 3.681 3.681 0 0 1 0 7.362z"/></symbol><symbol viewBox="0 0 20 20" id="phone" xmlns="http://www.w3.org/2000/svg"><path d="M19.99 15.78a.966.966 0 0 1-.296.846l-2.816 2.795a1.587 1.587 0 0 1-.497.36 2.058 2.058 0 0 1-.604.19 2.911 2.911 0 0 1-.402.021c-.268 0-.702-.045-1.302-.137-.6-.092-1.334-.318-2.202-.678-.868-.36-1.853-.9-2.954-1.62-1.1-.72-2.272-1.707-3.514-2.963-.988-.974-1.807-1.906-2.456-2.795-.65-.89-1.172-1.712-1.567-2.467-.395-.755-.692-1.44-.89-2.054A10.896 10.896 0 0 1 .088 5.69c-.07-.444-.099-.794-.084-1.048.014-.254.02-.395.02-.423.029-.198.092-.399.191-.603.1-.205.219-.371.36-.498L3.391.302A.933.933 0 0 1 4.07.006a.79.79 0 0 1 .487.158c.14.106.26.237.36.392L7.18 4.854c.127.226.162.473.106.741a1.32 1.32 0 0 1-.36.678L5.89 7.31a.353.353 0 0 0-.075.138.523.523 0 0 0-.031.159c.056.296.183.635.38 1.016.17.339.431.751.784 1.238.353.487.854 1.048 1.503 1.684.636.649 1.2 1.153 1.694 1.514.494.36.907.624 1.239.793.332.17.586.272.762.307l.265.053c.028 0 .074-.01.137-.031a.354.354 0 0 0 .138-.074l1.207-1.229c.254-.225.55-.338.889-.338.24 0 .43.042.572.127h.02l4.087 2.413c.297.184.473.417.53.7z"/></symbol><symbol viewBox="0 0 22 22" id="tel" xmlns="http://www.w3.org/2000/svg"><path d="M16.836 13.922c-.436-.453-.963-.694-1.52-.694-.554 0-1.085.237-1.54.69l-1.422 1.41c-.117-.062-.234-.12-.347-.178a5.727 5.727 0 0 1-.445-.238c-1.332-.842-2.543-1.94-3.704-3.36-.562-.708-.94-1.304-1.215-1.909.369-.336.711-.685 1.044-1.021.126-.126.252-.256.378-.381.945-.94.945-2.16 0-3.1L6.837 3.918c-.14-.14-.284-.283-.419-.426a20.83 20.83 0 0 0-.846-.833C5.135 2.229 4.613 2 4.064 2s-1.08.228-1.53.659l-.009.009-1.53 1.536A3.272 3.272 0 0 0 .02 6.288c-.11 1.308.278 2.527.575 3.324.729 1.958 1.818 3.772 3.442 5.717a21.167 21.167 0 0 0 7.052 5.497c1.035.488 2.417 1.066 3.96 1.165.095.005.194.009.284.009 1.04 0 1.913-.372 2.597-1.111.004-.01.013-.014.018-.023.234-.282.504-.537.787-.81.194-.184.392-.377.585-.578.446-.462.68-1 .68-1.55 0-.556-.238-1.09-.693-1.537l-2.47-2.469zm1.611 4.718c-.004 0-.004.004 0 0-.175.188-.355.358-.549.546-.292.278-.59.57-.868.896-.455.484-.99.713-1.692.713-.068 0-.14 0-.207-.005-1.337-.085-2.58-.604-3.51-1.048a19.978 19.978 0 0 1-6.643-5.18c-1.535-1.84-2.56-3.543-3.24-5.371-.419-1.116-.572-1.985-.504-2.805.045-.524.247-.959.62-1.33L3.39 3.528c.22-.206.455-.318.684-.318.284 0 .513.17.657.313l.014.014c.274.255.535.52.81.802.14.143.283.286.427.434L7.21 5.996c.477.475.477.914 0 1.39-.13.13-.256.26-.387.385-.378.385-.738.743-1.13 1.093-.009.009-.018.013-.022.022-.387.386-.315.762-.234 1.017l.013.04c.32.771.77 1.497 1.454 2.362l.005.004c1.242 1.523 2.551 2.71 3.996 3.62.184.117.373.21.553.3.162.081.315.157.446.238.018.009.036.022.054.031a.978.978 0 0 0 .445.112c.374 0 .608-.233.684-.309l1.54-1.532c.153-.152.396-.336.68-.336.278 0 .508.175.647.327l.01.009 2.479 2.469c.463.456.463.927.004 1.402zm-5.98-13.515c1.1.185 2.1.706 2.9 1.505a5.357 5.357 0 0 1 1.503 2.9c.047.277.286.47.56.47.033 0 .062-.004.096-.008a.568.568 0 0 0 .466-.656 6.482 6.482 0 0 0-1.819-3.509 6.48 6.48 0 0 0-3.509-1.82.57.57 0 0 0-.655.463.561.561 0 0 0 .458.655zm9.523 4.18a11.298 11.298 0 0 0-3.172-6.121 11.292 11.292 0 0 0-6.12-3.175.599.599 0 0 0-.69.49.604.604 0 0 0 .494.694 10.11 10.11 0 0 1 5.47 2.837 10.088 10.088 0 0 1 2.835 5.47.597.597 0 0 0 .592.499.59.59 0 0 0 .592-.695z"/></symbol><symbol viewBox="0 0 23 24" id="vk" xmlns="http://www.w3.org/2000/svg"><path d="M11.5 0C5.149 0 0 5.207 0 11.63c0 6.423 5.149 11.63 11.5 11.63S23 18.053 23 11.63C23 5.207 17.851 0 11.5 0zm5.833 12.888c.536.53 1.104 1.028 1.585 1.612.213.258.414.526.567.826.218.429.02.899-.358.924H16.77c-.609.05-1.093-.198-1.501-.618-.326-.335-.629-.694-.942-1.04a2.21 2.21 0 0 0-.425-.382c-.32-.211-.6-.147-.784.193-.188.345-.23.728-.248 1.112-.026.562-.193.709-.75.735-1.192.056-2.322-.126-3.372-.734-.927-.535-1.644-1.291-2.269-2.147-1.217-1.669-2.149-3.5-2.986-5.384-.189-.424-.05-.651.412-.66a64.838 64.838 0 0 1 2.307 0c.313.004.52.185.64.484a14.531 14.531 0 0 0 1.563 2.93c.17.243.344.485.591.657.273.189.481.127.61-.182a2.03 2.03 0 0 0 .136-.615c.06-.719.068-1.437-.038-2.153-.066-.448-.315-.738-.756-.822-.225-.044-.192-.128-.083-.258.19-.224.368-.363.723-.363h2.662c.42.082.514.273.57.7l.003 2.992c-.005.165.082.655.376.764.235.078.39-.113.531-.263.639-.685 1.093-1.494 1.5-2.33.18-.37.335-.752.486-1.134.112-.283.286-.423.602-.418l2.563.003c.076 0 .152.001.227.014.432.075.55.263.417.689-.21.67-.62 1.227-1.019 1.787-.428.598-.884 1.176-1.308 1.777-.39.55-.36.827.124 1.304z"/></symbol><symbol viewBox="0 0 23 24" id="youtube" xmlns="http://www.w3.org/2000/svg"><path fill-rule="evenodd" clip-rule="evenodd" d="M11.5 23.26c6.351 0 11.5-5.207 11.5-11.63C23 5.207 17.851 0 11.5 0S0 5.207 0 11.63c0 6.423 5.149 11.63 11.5 11.63zm3.32-17.445c1.83 0 2.788.254 3.307.874.521.623.56 1.578.56 2.963v2.503c0 1.588-.248 2.505-.832 3.066-.569.548-1.448.77-3.034.77H8.179c-3.269 0-3.867-1.291-3.867-3.836V9.652c0-1.313 0-2.262.505-2.907.516-.66 1.49-.93 3.362-.93h6.642zm-4.295 7.02l3.016-1.586a.467.467 0 0 0 0-.827l-3.017-1.575a.461.461 0 0 0-.454.015.467.467 0 0 0-.223.399v3.16a.467.467 0 0 0 .464.467.46.46 0 0 0 .214-.053z"/></symbol></svg>