<svg width="21" height="21" viewBox="0 0 21 21" fill="none" xmlns="http://www.w3.org/2000/svg">
<g clip-path="url(#clip0)">
<path d="M2.01559 7.33592C2.28123 7.52337 3.08199 8.08012 4.4179 9.00586C5.75386 9.9316 6.77729 10.6444 7.48824 11.1443C7.56635 11.1991 7.73229 11.3182 7.98616 11.5018C8.24007 11.6855 8.45104 11.834 8.61892 11.9472C8.78692 12.0604 8.99001 12.1874 9.22841 12.328C9.46672 12.4685 9.69136 12.5741 9.90229 12.6441C10.1133 12.7146 10.3086 12.7495 10.4882 12.7495H10.5H10.5118C10.6915 12.7495 10.8869 12.7145 11.0978 12.6441C11.3087 12.5741 11.5335 12.4683 11.7716 12.328C12.0099 12.1873 12.213 12.0604 12.381 11.9472C12.549 11.834 12.7598 11.6855 13.0138 11.5018C13.2676 11.318 13.4337 11.1991 13.5118 11.1443C14.2305 10.6444 16.0588 9.37482 18.9962 7.33567C19.5664 6.93741 20.0429 6.45685 20.4256 5.89432C20.8087 5.33203 21 4.74217 21 4.12505C21 3.60935 20.8144 3.1679 20.4432 2.80075C20.0721 2.43351 19.6326 2.25 19.125 2.25H1.87492C1.2734 2.25 0.810487 2.45309 0.486267 2.85928C0.162089 3.26555 0 3.77337 0 4.38269C0 4.87487 0.214915 5.40821 0.644539 5.9824C1.07412 6.55663 1.53129 7.00784 2.01559 7.33592Z" fill="#A2D9F7"/>
<path d="M19.828 8.5898C17.2657 10.324 15.3202 11.6718 13.9922 12.6328C13.5469 12.9608 13.1857 13.2169 12.9083 13.4003C12.6308 13.5839 12.2619 13.7714 11.8009 13.9628C11.34 14.1544 10.9105 14.2499 10.512 14.2499H10.5H10.4883C10.0898 14.2499 9.66008 14.1544 9.19922 13.9628C8.73836 13.7714 8.36915 13.5839 8.09181 13.4003C7.81455 13.2169 7.45318 12.9608 7.00792 12.6328C5.95317 11.8595 4.0118 10.5116 1.18371 8.5898C0.738287 8.29313 0.343757 7.95306 0 7.57031V16.8747C0 17.3907 0.183515 17.8319 0.55075 18.1991C0.917903 18.5664 1.35939 18.75 1.87504 18.75H19.1251C19.6406 18.75 20.0821 18.5664 20.4493 18.1991C20.8166 17.8318 21 17.3907 21 16.8747V7.57031C20.664 7.94514 20.2735 8.2852 19.828 8.5898Z" fill="#A2D9F7"/>
</g>
<defs>
<clipPath id="clip0">
<rect width="21" height="21" fill="white"/>
</clipPath>
</defs>
</svg>
