<svg width="23" height="24" viewBox="0 0 23 24" fill="none" xmlns="http://www.w3.org/2000/svg">
<path d="M11.5 0C5.15893 0 0 5.21736 0 11.6303C0 18.0427 5.15893 23.2605 11.5 23.2605C17.8406 23.2605 23 18.0427 23 11.6303C23 5.21736 17.8415 0 11.5 0ZM14.3599 12.0397H12.489C12.489 15.0627 12.489 18.7838 12.489 18.7838H9.71659C9.71659 18.7838 9.71659 15.0988 9.71659 12.0397H8.39872V9.65613H9.71659V8.11439C9.71659 7.0102 10.2354 5.28482 12.5145 5.28482L14.5689 5.29279V7.60656C14.5689 7.60656 13.3205 7.60656 13.0777 7.60656C12.835 7.60656 12.4899 7.7293 12.4899 8.25587V9.65659H14.6022L14.3599 12.0397Z" fill="#2F80ED"/>
</svg>
