<svg width="23" height="24" viewBox="0 0 23 24" fill="none" xmlns="http://www.w3.org/2000/svg">
<path fill-rule="evenodd" clip-rule="evenodd" d="M11.5 23.2605C17.8513 23.2605 23 18.0535 23 11.6303C23 5.20704 17.8513 0 11.5 0C5.14872 0 0 5.20704 0 11.6303C0 18.0535 5.14872 23.2605 11.5 23.2605ZM8.40343 11.8471C8.40343 10.1934 9.73381 8.84793 11.3691 8.84793C13.0044 8.84793 14.3348 10.1934 14.3348 11.8471C14.3348 13.5009 13.0044 14.8464 11.3691 14.8464C9.73381 14.8464 8.40343 13.5009 8.40343 11.8471ZM9.4246 11.8471C9.4246 12.9314 10.2969 13.8136 11.3691 13.8136C12.4413 13.8136 13.3136 12.9314 13.3136 11.8471C13.3136 10.7627 12.4413 9.88062 11.3691 9.88062C10.2969 9.88062 9.4246 10.7627 9.4246 11.8471ZM13.9475 6.02721H8.79052C7.03923 6.02721 5.61443 7.46817 5.61443 9.23936V14.4548C5.61443 16.226 7.03923 17.667 8.79052 17.667H13.9475C15.699 17.667 17.1238 16.2259 17.1238 14.4548V9.23936C17.1238 7.46817 15.699 6.02721 13.9475 6.02721ZM16.1027 14.4548C16.1027 15.6565 15.1359 16.6342 13.9476 16.6342H8.79052C7.6023 16.6343 6.63559 15.6565 6.63559 14.4548V9.23936C6.63559 8.03767 7.6023 7.0599 8.79052 7.0599H13.9475C15.1358 7.0599 16.1026 8.03767 16.1026 9.23936L16.1027 14.4548ZM13.9302 8.19399C14.0691 8.05281 14.2624 7.97231 14.4591 7.97231C14.6566 7.97231 14.8499 8.05281 14.9888 8.19399C15.1283 8.33441 15.208 8.52997 15.208 8.72968C15.208 8.92865 15.1283 9.1242 14.9888 9.26527C14.8492 9.4057 14.6566 9.48695 14.4591 9.48695C14.2624 9.48695 14.0691 9.4057 13.9302 9.26527C13.7906 9.1242 13.7103 8.92865 13.7103 8.72968C13.7103 8.52997 13.7906 8.33441 13.9302 8.19399Z" fill="#9B51E0"/>
</svg>
