<svg width="17" height="19" viewBox="0 0 17 19" fill="none" xmlns="http://www.w3.org/2000/svg">
<path d="M8.22978 0.00483583C4.4549 0.137288 1.3189 3.0824 0.956608 6.84169C0.882591 7.59355 0.925443 8.32204 1.0579 9.01936C1.0579 9.01936 1.06958 9.10117 1.10854 9.25699C1.22541 9.77901 1.40071 10.2854 1.61887 10.7607C2.37852 12.5605 4.13546 15.5718 8.07785 18.8481C8.31938 19.0506 8.67388 19.0506 8.91931 18.8481C12.8617 15.5757 14.6186 12.5644 15.3822 10.7568C15.6042 10.2815 15.7756 9.77901 15.8925 9.2531C15.9276 9.10117 15.9432 9.01546 15.9432 9.01546C16.0328 8.54799 16.0795 8.06882 16.0795 7.57797C16.0795 3.30055 12.5384 -0.147094 8.22978 0.00483583ZM8.49858 11.349C6.46505 11.349 4.81719 9.7011 4.81719 7.66757C4.81719 5.63404 6.46505 3.98619 8.49858 3.98619C10.5321 3.98619 12.18 5.63404 12.18 7.66757C12.18 9.7011 10.5321 11.349 8.49858 11.349Z" fill="#A2D9F7"/>
</svg>
