<svg width="20" height="20" viewBox="0 0 20 20" fill="none" xmlns="http://www.w3.org/2000/svg">
<path d="M19.9904 15.7792C20.0328 16.1039 19.9339 16.3862 19.694 16.6261L16.8781 19.4208C16.751 19.5619 16.5852 19.682 16.3806 19.7807C16.1759 19.8795 15.9748 19.9431 15.7772 19.9713C15.7631 19.9713 15.7207 19.9749 15.6501 19.982C15.5796 19.989 15.4879 19.9926 15.3749 19.9926C15.1067 19.9926 14.6726 19.9467 14.0727 19.8549C13.4728 19.7631 12.7389 19.5373 11.8709 19.1774C11.0027 18.8175 10.0182 18.2775 8.91722 17.5577C7.81628 16.8379 6.6447 15.8498 5.40257 14.5935C4.41452 13.6196 3.59585 12.688 2.94655 11.7988C2.29726 10.9095 1.775 10.0873 1.37978 9.33214C0.984525 8.57698 0.688109 7.8924 0.490498 7.2784C0.292887 6.66439 0.158794 6.13508 0.0882191 5.69045C0.0176438 5.24583 -0.0105863 4.89648 0.00352876 4.64241C0.0176438 4.38834 0.0247013 4.24719 0.0247013 4.21896C0.0529315 4.02135 0.116449 3.82021 0.215255 3.61554C0.31406 3.41087 0.434038 3.24502 0.575189 3.11799L3.39114 0.302031C3.58875 0.104421 3.81459 0.00561523 4.06867 0.00561523C4.25216 0.00561523 4.41448 0.0585467 4.55563 0.16441C4.69679 0.270273 4.81676 0.400837 4.91557 0.556103L7.18104 4.85414C7.30807 5.07998 7.34336 5.32699 7.2869 5.59518C7.23044 5.86336 7.11046 6.08921 6.92696 6.2727L5.88951 7.31016C5.86128 7.33839 5.83658 7.38426 5.8154 7.44778C5.79423 7.5113 5.78364 7.56423 5.78364 7.60657C5.8401 7.90299 5.96714 8.24175 6.16475 8.62286C6.33413 8.96162 6.59526 9.37449 6.94814 9.86145C7.30101 10.3484 7.8021 10.9095 8.45139 11.5446C9.08657 12.194 9.65117 12.6985 10.1452 13.0586C10.6391 13.4183 11.0521 13.6831 11.3838 13.8525C11.7155 14.0219 11.9696 14.1242 12.146 14.1594L12.4106 14.2124C12.4388 14.2124 12.4848 14.2017 12.5483 14.1806C12.6118 14.1594 12.6576 14.1347 12.6859 14.1065L13.8927 12.8784C14.1469 12.6526 14.4432 12.5397 14.782 12.5397C15.022 12.5397 15.2125 12.582 15.3536 12.6668H15.3748L19.461 15.0804C19.7576 15.2641 19.934 15.4969 19.9904 15.7792Z" fill="#A2D9F7"/>
</svg>
