<svg width="22" height="22" viewBox="0 0 22 22" fill="none" xmlns="http://www.w3.org/2000/svg">
<path d="M16.8363 13.922C16.3997 13.4695 15.8732 13.2276 15.3152 13.2276C14.7616 13.2276 14.2306 13.4651 13.776 13.9176L12.3539 15.3289C12.2369 15.2661 12.1199 15.2079 12.0074 15.1496C11.8454 15.069 11.6924 14.9928 11.5619 14.9122C10.2298 14.0699 9.01919 12.9722 7.8581 11.552C7.29556 10.8441 6.91753 10.2482 6.64301 9.64337C7.01204 9.30735 7.35406 8.95788 7.68709 8.62186C7.8131 8.49642 7.93911 8.36649 8.06511 8.24104C9.01019 7.30018 9.01019 6.08154 8.06511 5.14068L6.83652 3.91756C6.69701 3.77867 6.553 3.6353 6.41799 3.49194C6.14797 3.21416 5.86445 2.92742 5.57193 2.6586C5.1354 2.22849 4.61336 2 4.06432 2C3.51528 2 2.98424 2.22849 2.5342 2.6586C2.5297 2.66308 2.5297 2.66308 2.5252 2.66756L0.995091 4.2043C0.419048 4.77778 0.0905235 5.4767 0.0185182 6.28763C-0.0894898 7.59588 0.297539 8.81452 0.594561 9.61201C1.32361 11.5699 2.4127 13.3844 4.03732 15.3289C6.00846 17.672 8.38014 19.5224 11.0893 20.8262C12.1244 21.3145 13.506 21.8925 15.0496 21.991C15.1441 21.9955 15.2431 22 15.3332 22C16.3727 22 17.2458 21.6281 17.9298 20.8889C17.9343 20.8799 17.9433 20.8754 17.9478 20.8665C18.1819 20.5842 18.4519 20.3289 18.7354 20.0556C18.9289 19.8719 19.1269 19.6792 19.3204 19.4776C19.766 19.0161 20 18.4785 20 17.9274C20 17.3719 19.7615 16.8387 19.3069 16.3907L16.8363 13.922ZM18.4474 18.6398C18.4429 18.6398 18.4429 18.6443 18.4474 18.6398C18.2719 18.828 18.0919 18.9982 17.8983 19.1864C17.6058 19.4642 17.3088 19.7554 17.0298 20.0824C16.5752 20.5663 16.0397 20.7948 15.3377 20.7948C15.2701 20.7948 15.1981 20.7948 15.1306 20.7903C13.794 20.7052 12.5519 20.1855 11.6204 19.7419C9.07319 18.5143 6.83652 16.7715 4.97789 14.5627C3.44327 12.7213 2.4172 11.0188 1.73765 9.19086C1.31911 8.07527 1.1661 7.20609 1.23361 6.3862C1.27861 5.86201 1.48113 5.42742 1.85465 5.05556L3.38927 3.52778C3.60978 3.32168 3.8438 3.20968 4.07332 3.20968C4.35684 3.20968 4.58636 3.37993 4.73037 3.5233C4.73487 3.52778 4.73937 3.53226 4.74387 3.53674C5.01839 3.79211 5.27941 4.05645 5.55393 4.33871C5.69344 4.48208 5.83745 4.62545 5.98146 4.7733L7.21005 5.99642C7.68709 6.47133 7.68709 6.91039 7.21005 7.3853C7.07954 7.51523 6.95353 7.64516 6.82302 7.77061C6.44499 8.15591 6.08497 8.51434 5.69344 8.8638C5.68444 8.87276 5.67544 8.87724 5.67094 8.8862C5.28391 9.27151 5.35591 9.64785 5.43692 9.90323C5.44142 9.91667 5.44592 9.93011 5.45042 9.94355C5.76994 10.7142 6.21998 11.44 6.90403 12.3047L6.90853 12.3091C8.15062 13.8324 9.46022 15.0197 10.9048 15.9292C11.0893 16.0457 11.2784 16.1398 11.4584 16.2294C11.6204 16.31 11.7734 16.3862 11.9039 16.4668C11.9219 16.4758 11.9399 16.4892 11.9579 16.4982C12.1109 16.5744 12.2549 16.6102 12.4034 16.6102C12.777 16.6102 13.011 16.3772 13.0875 16.3011L14.6266 14.7688C14.7796 14.6165 15.0226 14.4328 15.3062 14.4328C15.5852 14.4328 15.8147 14.6075 15.9542 14.7599C15.9587 14.7643 15.9587 14.7643 15.9632 14.7688L18.4429 17.2375C18.9064 17.6944 18.9064 18.1649 18.4474 18.6398Z" fill="#067FBE"/>
<path d="M12.4669 5.12539C13.5678 5.31029 14.5679 5.83137 15.3662 6.6298C16.1646 7.42822 16.6814 8.42836 16.8705 9.52935C16.9167 9.8067 17.1562 10 17.4294 10C17.463 10 17.4924 9.9958 17.526 9.9916C17.8369 9.94117 18.0428 9.64701 17.9924 9.33605C17.7655 8.00393 17.1352 6.78948 16.173 5.82717C15.2108 4.86485 13.9964 4.23452 12.6644 4.0076C12.3535 3.95717 12.0635 4.16308 12.0089 4.46984C11.9543 4.77661 12.156 5.07497 12.4669 5.12539Z" fill="#067FBE"/>
<path d="M21.9908 9.30545C21.5947 6.98138 20.4999 4.86656 18.8175 3.18361C17.1352 1.50067 15.0211 0.405413 12.6979 0.00916338C12.373 -0.0487158 12.0659 0.173896 12.008 0.49891C11.9546 0.828376 12.1727 1.13558 12.5021 1.19346C14.5761 1.54519 16.4676 2.52913 17.9719 4.02954C19.4762 5.5344 20.4554 7.4266 20.807 9.50135C20.8559 9.7952 21.1096 10 21.3989 10C21.4345 10 21.4657 9.99555 21.5013 9.9911C21.8262 9.94212 22.0487 9.63046 21.9908 9.30545Z" fill="#067FBE"/>
</svg>
