<svg width="23" height="24" viewBox="0 0 23 24" fill="none" xmlns="http://www.w3.org/2000/svg">
<path d="M11.5 0C5.14894 0 0 5.20703 0 11.6303C0 18.0535 5.14894 23.2605 11.5 23.2605C17.8511 23.2605 23 18.0535 23 11.6303C23 5.20703 17.8511 0 11.5 0ZM17.3334 12.8881C17.8694 13.4176 18.4365 13.9159 18.9176 14.5001C19.1308 14.7585 19.3318 15.0257 19.4847 15.3262C19.7031 15.7548 19.5059 16.2248 19.1266 16.2502L16.7706 16.2498C16.1621 16.3007 15.6779 16.0525 15.2696 15.6318C14.9438 15.2965 14.6414 14.9384 14.3275 14.5917C14.1993 14.4494 14.0642 14.3154 13.9033 14.21C13.5821 13.9987 13.3031 14.0634 13.1191 14.4027C12.9315 14.748 12.8887 15.1306 12.8708 15.5149C12.8452 16.0768 12.6776 16.2236 12.1202 16.25C10.9292 16.3064 9.79906 16.1236 8.74871 15.5164C7.82212 14.9807 7.10494 14.2247 6.48 13.3688C5.26306 11.7002 4.33106 9.86889 3.49365 7.98496C3.30518 7.56068 3.44306 7.33367 3.90588 7.32486C4.67482 7.30987 5.44376 7.31178 6.21271 7.32415C6.52565 7.32915 6.73271 7.51023 6.85294 7.80887C7.26847 8.84281 7.77788 9.82653 8.41624 10.7389C8.58635 10.9818 8.76 11.2241 9.00729 11.3956C9.28024 11.585 9.48824 11.5225 9.61694 11.2143C9.69929 11.0185 9.73482 10.8091 9.75271 10.5992C9.81388 9.88031 9.82118 9.16167 9.71529 8.44565C9.64941 7.99758 9.40024 7.70822 8.95859 7.6235C8.73365 7.58043 8.76659 7.49619 8.876 7.36627C9.06588 7.14163 9.24376 7.00267 9.59929 7.00267L12.2612 7.00219C12.6807 7.08548 12.7748 7.27584 12.8318 7.70322L12.8341 10.6948C12.8292 10.8602 12.9162 11.3504 13.2099 11.4587C13.4452 11.5372 13.6005 11.3464 13.7412 11.1957C14.3795 10.5107 14.8344 9.70208 15.2416 8.86518C15.4214 8.4961 15.5765 8.11417 15.7271 7.73154C15.8391 7.4486 16.0132 7.3094 16.3289 7.31416L18.8922 7.31725C18.9678 7.31725 19.0445 7.31796 19.1193 7.33105C19.5513 7.40577 19.6696 7.59376 19.536 8.01994C19.3256 8.68956 18.9169 9.24734 18.5174 9.80654C18.0892 10.4052 17.6325 10.983 17.2085 11.5843C16.8188 12.134 16.8496 12.4108 17.3334 12.8881Z" fill="#2D9CDB"/>
</svg>
