<svg width="23" height="24" viewBox="0 0 23 24" fill="none" xmlns="http://www.w3.org/2000/svg">
<path fill-rule="evenodd" clip-rule="evenodd" d="M11.5 23.2605C17.8513 23.2605 23 18.0535 23 11.6303C23 5.20705 17.8513 0 11.5 0C5.14873 0 0 5.20705 0 11.6303C0 18.0535 5.14873 23.2605 11.5 23.2605ZM14.8207 5.81543C16.6503 5.81543 17.6083 6.06853 18.1272 6.68901C18.6485 7.31224 18.6875 8.26685 18.6875 9.65198V12.1554C18.6875 13.7427 18.4386 14.6595 17.8553 15.221C17.2865 15.7686 16.4073 15.9919 14.8207 15.9919H8.17919C4.9105 15.9919 4.3125 14.7 4.3125 12.1554V9.65198C4.3125 8.33853 4.3125 7.38953 4.81651 6.74545C5.33345 6.08485 6.3077 5.81543 8.17919 5.81543H14.8207ZM10.5254 12.8348L13.5413 11.2493C13.6945 11.1688 13.7904 11.0092 13.7903 10.8352C13.79 10.6614 13.6937 10.502 13.5402 10.4219L10.5244 8.8466C10.3807 8.7715 10.2084 8.77728 10.0699 8.86189C9.93141 8.94652 9.84692 9.09764 9.84692 9.26053V12.4214C9.84692 12.5846 9.93164 12.7359 10.0704 12.8204C10.1441 12.8653 10.2273 12.8879 10.3106 12.8879C10.3843 12.8879 10.458 12.8703 10.5254 12.8348Z" fill="#EB5757"/>
</svg>
