<svg width="54" height="54" viewBox="0 0 54 54" fill="none" xmlns="http://www.w3.org/2000/svg">
<g clip-path="url(#clip0)">
<path d="M52.0555 45.5488L45.8628 32.2689C42.4434 37.2478 37.1044 40.7931 30.9243 41.8682L36.1083 52.9847C36.771 54.4071 38.8222 54.3122 39.356 52.8433L42.0131 45.5444L42.5607 45.289L49.8596 47.9461C51.3243 48.4836 52.7174 46.9657 52.0555 45.5488Z" fill="#067FBE"/>
<path d="M27.0001 0C16.3282 0 7.64493 8.68272 7.64493 19.3552C7.64493 30.0277 16.3283 38.7104 27.0001 38.7104C37.6721 38.7104 46.3553 30.0277 46.3553 19.3552C46.3553 8.68272 37.6722 0 27.0001 0ZM36.4179 17.9331L32.9858 21.2787L33.7969 26.0042C34.0448 27.4469 32.5247 28.5308 31.2433 27.8588L27.0002 25.6284L22.7571 27.8587C21.4684 28.5354 19.957 27.4388 20.2036 26.0041L21.0147 21.2786L17.5826 17.933C16.5395 16.916 17.1184 15.1409 18.5577 14.9317L23.3013 14.2427L25.423 9.94454C26.0649 8.63926 27.9351 8.6381 28.5778 9.94454L30.6994 14.2427L35.4431 14.9317C36.8821 15.1408 37.4609 16.916 36.4179 17.9331Z" fill="#067FBE"/>
<path d="M8.13756 32.2689L1.94485 45.5488C1.27987 46.9723 2.68556 48.4819 4.14082 47.9458L11.4397 45.2887L11.9873 45.5441L14.6443 52.843C15.1771 54.3089 17.2279 54.41 17.892 52.9846L23.076 41.8681C16.8959 40.7931 11.5571 37.2479 8.13756 32.2689Z" fill="#067FBE"/>
</g>
<defs>
<clipPath id="clip0">
<rect width="54" height="54" fill="white"/>
</clipPath>
</defs>
</svg>
