<svg width="48" height="47" viewBox="0 0 48 47" fill="none" xmlns="http://www.w3.org/2000/svg">
<path fill-rule="evenodd" clip-rule="evenodd" d="M45.5086 12.0782C44.4587 10.2047 43.1493 8.46702 41.6037 6.92144C37.172 2.48972 31.1613 0 24.8939 0C18.6264 0 12.6157 2.48972 8.18402 6.92144C6.63844 8.46702 5.32906 10.2047 4.27911 12.0782H45.5086Z" fill="#067FBE"/>
<path fill-rule="evenodd" clip-rule="evenodd" d="M4.15083 34.9217C5.20078 36.7953 6.51015 38.533 8.05573 40.0786C12.4875 44.5103 18.4982 47 24.7656 47C31.033 47 37.0437 44.5103 41.4754 40.0786C43.021 38.533 44.3304 36.7953 45.3803 34.9218L4.15083 34.9217Z" fill="#067FBE"/>
<path fill-rule="evenodd" clip-rule="evenodd" d="M27.5777 31.5085H46.2685C46.7745 30.1617 47.1624 28.7571 47.4196 27.3073H30.1693L27.5777 31.5085ZM31.1412 25.7319H47.6451C47.7393 24.8696 47.7877 23.9935 47.7877 23.1061C47.7877 22.5768 47.7705 22.0515 47.7366 21.5308H33.7328L31.1412 25.7319ZM17.2114 21.5308L19.803 25.7319H0.142632C0.0483751 24.8696 0 23.9935 0 23.1061C0 22.5768 0.0172108 22.0515 0.0511033 21.5308H17.2114ZM34.7046 19.9554H47.5818C47.3915 18.5103 47.072 17.106 46.6353 15.7543H37.2962L34.7046 19.9554ZM13.6479 15.7543L16.2395 19.9554H0.205888C0.396244 18.5103 0.715734 17.106 1.15239 15.7543H13.6479ZM20.7748 27.3073L23.3664 31.5085H1.51917C1.01317 30.1617 0.625292 28.7571 0.368141 27.3073H20.7748Z" fill="#067FBE"/>
</svg>
