<svg width="46" height="46" viewBox="0 0 46 46" fill="none" xmlns="http://www.w3.org/2000/svg">
<path d="M23.0672 20.6575C25.1123 20.6575 26.7701 18.9996 26.7701 16.9546C26.7701 14.9095 25.1123 13.2517 23.0672 13.2517C21.0222 13.2517 19.3643 14.9095 19.3643 16.9546C19.3643 18.9996 21.0222 20.6575 23.0672 20.6575Z" fill="#067FBE"/>
<path d="M22.9996 0C10.2975 0 0.000183105 10.2977 0.000183105 22.9998C0.000183105 35.7016 10.2975 46 22.9996 46C35.7017 46 45.9999 35.7016 45.9999 22.9998C45.9999 10.2977 35.7017 0 22.9996 0ZM22.952 10.5307C22.9682 10.5307 22.9842 10.53 23.0001 10.5292C23.0161 10.53 23.0318 10.5307 23.0483 10.5307C26.9236 10.5919 30.0762 13.7949 30.0762 17.6712C30.0762 22.4105 25.0125 27.2094 23.0001 28.9289C22.8656 28.8139 22.7166 28.6844 22.5571 28.5424C22.5544 28.5399 22.5519 28.5379 22.5496 28.5356C20.3226 26.5567 15.9242 22.0887 15.9242 17.6712C15.924 13.7949 19.0769 10.5921 22.952 10.5307ZM23.0999 35.612C18.8582 35.612 14.5639 34.3952 14.5639 32.0703C14.5639 30.4387 16.6784 29.3537 19.4046 28.851C19.9319 29.3811 20.431 29.8485 20.8689 30.2386C17.8994 30.5702 16.1548 31.5103 16.1548 32.0698C16.1548 32.7574 18.7914 34.0209 23.0999 34.0209C27.4085 34.0209 30.0455 32.7574 30.0455 32.0698C30.0455 31.4988 28.2273 30.5351 25.15 30.2218C25.5918 29.8273 26.0949 29.3557 26.6262 28.8201C29.4342 29.3089 31.6362 30.4048 31.6362 32.0703C31.6362 34.3952 27.3419 35.612 23.0999 35.612Z" fill="#067FBE"/>
</svg>
