<svg width="58" height="58" viewBox="0 0 58 58" fill="none" xmlns="http://www.w3.org/2000/svg">
<g clip-path="url(#clip0)">
<path d="M20.1415 23.4404C20.5844 22.9974 20.5844 22.2801 20.1415 21.8385C19.6999 21.3955 18.9826 21.3955 18.5396 21.8385C18.0967 22.2801 18.0967 22.9974 18.5396 23.4404C18.9826 23.882 19.6999 23.882 20.1415 23.4404Z" fill="#43ACE1"/>
<path d="M31.3563 25.0422C32.6812 23.7174 32.6812 21.5615 31.3563 20.2366C30.0284 18.9087 27.8778 18.9082 26.5498 20.2366C25.2214 21.5646 25.2214 23.7138 26.5498 25.0422C27.8747 26.3671 30.031 26.3675 31.3563 25.0422ZM28.1517 21.8385C28.5946 21.396 29.3115 21.396 29.7544 21.8385C30.1956 22.2801 30.1956 22.9983 29.7544 23.4399C29.3124 23.8815 28.5933 23.882 28.1517 23.4399C27.7096 22.9983 27.7079 22.2823 28.1517 21.8385Z" fill="#43ACE1"/>
<path d="M26.5498 33.0516C25.2214 34.38 25.2214 36.5301 26.5498 37.8585C27.8778 39.1865 30.0279 39.1869 31.3563 37.8585C32.6816 36.5332 32.6816 34.3769 31.3563 33.0516C30.0284 31.7241 27.8778 31.7236 26.5498 33.0516ZM29.7544 36.2567C29.3115 36.6992 28.5942 36.6992 28.1517 36.2567C27.7096 35.8146 27.7079 35.0977 28.1517 34.6539C28.5946 34.211 29.3115 34.2114 29.7544 34.6539C30.1961 35.0955 30.1961 35.8146 29.7544 36.2567Z" fill="#43ACE1"/>
<path d="M19.8317 30.8714C19.9543 31.4856 20.5517 31.8825 21.1645 31.7599L37.1845 28.5553C37.7978 28.4327 38.1956 27.8358 38.0731 27.2225C37.9505 26.6087 37.3536 26.2113 36.7402 26.3339L20.7203 29.5385C20.1065 29.6611 19.7087 30.258 19.8317 30.8714Z" fill="#43ACE1"/>
<path d="M34.4383 6.40881C34.1379 6.40881 33.8498 6.52785 33.6374 6.74025L21.7442 18.6335C21.3017 19.076 21.3017 19.7933 21.7442 20.2358C22.1867 20.6783 22.904 20.6783 23.3461 20.2358L34.4383 9.14349L48.856 23.5616L23.4244 48.9933L9.00628 34.5756L16.9382 26.6437C17.3807 26.2016 17.3807 25.4843 16.9382 25.0418C16.4957 24.5997 15.7784 24.5997 15.3359 25.0418L6.60348 33.7746C6.16098 34.2167 6.16098 34.934 6.60348 35.3765L22.6235 51.3965C23.066 51.839 23.7828 51.839 24.2253 51.3965L51.2592 24.3626C51.7017 23.9201 51.7017 23.2028 51.2592 22.7603L35.2393 6.74025C35.0269 6.52785 34.7388 6.40881 34.4383 6.40881Z" fill="#43ACE1"/>
<path d="M56.0653 0.332266L51.2031 5.19407C48.3662 3.0519 44.4487 3.01694 41.6357 5.10557L37.6531 1.00753C37.6492 1.00355 37.6456 1.00001 37.6416 0.996023C36.3203 -0.325297 34.1715 -0.339457 32.8343 0.997793L0.995644 32.9736C-0.332311 34.3016 -0.332754 36.4522 0.995644 37.7806L5.48883 42.2733C4.48523 45.1456 5.20917 48.402 7.40355 50.5955C9.59748 52.7903 12.8539 53.5138 15.7262 52.5111L20.2194 57.0039C21.5473 58.3318 23.6988 58.3314 25.0241 57.0056L57.0034 25.1634C58.3318 23.835 58.3318 21.6858 57.0034 20.3578C56.9994 20.3538 56.9959 20.3503 56.9919 20.3463L52.8943 16.3647C54.9754 13.5707 54.9674 9.65142 52.8054 6.79638L57.6672 1.93458C58.1097 1.49207 58.1097 0.77477 57.6672 0.332266C57.2247 -0.110239 56.5078 -0.110239 56.0653 0.332266ZM50.5393 15.6328C50.3251 15.8474 50.2057 16.1385 50.2074 16.4421C50.2096 16.7452 50.3335 17.0351 50.5508 17.2461L55.406 21.9646C55.8454 22.4088 55.8405 23.1222 55.4029 23.5593L23.424 55.4016C22.9819 55.8436 22.2628 55.8436 21.8212 55.4016L16.797 50.3778C16.5802 50.1605 16.2899 50.0459 15.9961 50.0459C15.8333 50.0459 15.6691 50.0809 15.5151 50.153C13.3366 51.1752 10.7206 50.7092 9.00586 48.9932C7.28982 47.2785 6.82387 44.6628 7.84605 42.4844C8.04872 42.0521 7.95933 41.5396 7.6217 41.202L2.59795 36.1783C2.15589 35.7362 2.15589 35.0176 2.59928 34.5737L34.4383 2.59789C34.8791 2.1576 35.5915 2.15494 36.0349 2.59302L40.7529 7.44819C41.1759 7.88361 41.9003 7.92609 42.3667 7.46013C44.3057 5.52019 47.3422 5.3131 49.5791 6.81806L47.9175 8.47966C46.6541 7.87786 45.0938 8.09867 44.0495 9.14298C42.7247 10.4683 42.7247 12.6246 44.0495 13.9495C45.3775 15.2774 47.5281 15.2779 48.8565 13.9495C49.9247 12.8813 50.1118 11.3144 49.5211 10.0802L51.1823 8.41904C52.6757 10.6298 52.5036 13.6689 50.5393 15.6328ZM47.2542 10.7448C47.6962 11.1869 47.698 11.9038 47.2542 12.3476C46.8116 12.7901 46.0943 12.7901 45.6518 12.3476C45.2098 11.9055 45.2098 11.1865 45.6514 10.7448C46.0935 10.3037 46.8125 10.3028 47.2542 10.7448Z" fill="#43ACE1"/>
</g>
<defs>
<clipPath id="clip0">
<rect width="58" height="58" fill="white"/>
</clipPath>
</defs>
</svg>
