<svg width="70" height="70" viewBox="0 0 70 70" fill="none" xmlns="http://www.w3.org/2000/svg">
<path d="M56.8513 45.9381L58.1777 43.2566L53.8391 38.918L51.1565 40.2444C50.1741 39.697 49.1366 39.267 48.0583 38.9599L47.1007 36.1269H40.9638L40.0062 38.9599C38.9279 39.267 37.8904 39.697 36.908 40.2444L34.2254 38.918L29.8868 43.2566L31.2132 45.9381C31.0594 46.2137 30.9183 46.4938 30.7832 46.7782L24.8387 44.7969V43.4408C26.3051 42.4578 27.4931 41.0983 28.2859 39.5073C30.7479 39.4748 32.7419 37.467 32.7419 34.9978V29.1454C34.0529 28.6779 35 27.4358 35 25.9656C35 24.4269 33.9625 23.1397 32.5556 22.729C31.6432 17.3826 27.3443 13.2452 21.9351 12.5429C21.3612 11.7849 20.4615 11.2881 19.4411 11.2881H18.946C17.9256 11.2881 17.0259 11.7849 16.452 12.5429C11.0467 13.2452 6.74498 17.3854 5.8315 22.729C4.42462 23.1397 3.3871 24.4269 3.3871 25.9656C3.3871 27.4358 4.33421 28.6779 5.64516 29.1454V34.9978C5.64516 37.4411 7.59836 39.4252 10.0979 39.5007C10.8906 41.095 12.0798 42.4562 13.5484 43.4419V44.798L4.47754 47.8218C1.79995 48.7132 0 51.21 0 54.0337V65.4817H36.1616C36.838 65.8174 38.6649 66.7011 39.9996 67.1449L40.9638 69.9978H47.1007L48.0583 67.1653C49.1366 66.8583 50.1741 66.4283 51.1565 65.8803L53.8391 67.2072L58.1777 62.8681L56.8513 60.1866C57.3965 59.2042 57.8282 58.1667 58.1363 57.09L60.9677 56.1302V49.9939L58.1352 49.0352C57.8282 47.958 57.3965 46.9205 56.8513 45.9381ZM36.8424 49.8357C38.107 47.0214 40.9059 45.1591 44.0323 45.1591C48.3891 45.1591 51.9355 48.7044 51.9355 53.0623C51.9355 57.4208 48.3891 60.9656 44.0323 60.9656C41.9004 60.9656 39.8706 60.094 38.3871 58.5779V54.0337C38.3871 52.4526 37.8077 50.9873 36.8424 49.8357ZM36.129 54.0337V63.2236H31.6129V55.9825L31.2821 55.6512C30.039 54.4086 29.3548 52.7553 29.3548 50.9978V48.6829L33.1945 49.9636C34.9504 50.5479 36.129 52.1841 36.129 54.0337ZM9.03226 60.9656H29.3548V63.2236H9.03226V60.9656ZM27.0968 47.9299V50.9978C27.0968 53.1969 27.895 55.2741 29.3548 56.8987V58.7075H9.03226V56.8987C10.4921 55.2752 11.2903 53.198 11.2903 50.9978V47.9299L13.6355 47.1487C14.0528 49.8517 16.3754 51.9333 19.1935 51.9333C22.0117 51.9333 24.3343 49.8517 24.7516 47.1487L27.0968 47.9299ZM30.4839 29.3527V31.1096C30.1338 30.9051 29.7567 30.7463 29.3548 30.6421V29.3527H30.4839ZM29.1448 37.0563C29.2826 36.3915 29.3548 35.7024 29.3548 34.9978V33.054C30.0269 33.4454 30.4839 34.1659 30.4839 34.9978C30.4839 35.9157 29.932 36.7029 29.1448 37.0563ZM18.946 13.5462H19.4411C19.9262 13.5462 20.3226 13.9415 20.3226 14.4283C20.3226 14.5005 20.3138 14.5738 20.2978 14.6416L19.4422 18.0623H18.9449L18.0904 14.6438C18.0733 14.5738 18.0645 14.5005 18.0645 14.4283C18.0645 13.9415 18.4609 13.5462 18.946 13.5462ZM10.927 17.6031L12.5379 20.8254L14.5578 19.8149L12.7446 16.1896C13.6928 15.6069 14.7452 15.178 15.8676 14.9316C15.8809 15.0176 15.8776 15.1058 15.8991 15.1901L17.1841 20.3204H21.2041L22.4891 15.1879C22.5095 15.1047 22.5062 15.0176 22.5206 14.9316C23.6441 15.1791 24.6954 15.6069 25.6436 16.1896L23.8304 19.816L25.8503 20.8265L27.4628 17.6031C28.8173 18.9367 29.7881 20.6539 30.2242 22.5796H8.16398C8.60115 20.6539 9.57197 18.9378 10.927 17.6031ZM6.77419 24.8365H31.6129C32.2359 24.8365 32.7419 25.3437 32.7419 25.9656C32.7419 26.588 32.2359 27.0946 31.6129 27.0946H6.77419C6.15124 27.0946 5.64516 26.588 5.64516 25.9656C5.64516 25.3437 6.15124 24.8365 6.77419 24.8365ZM9.03226 30.6421C8.63037 30.7474 8.25329 30.9051 7.90323 31.1096V29.3527H9.03226V30.6421ZM7.90323 34.9978C7.90323 34.1659 8.36024 33.4454 9.03226 33.054V34.9978C9.03226 35.7024 9.10448 36.3915 9.2423 37.0563C8.45506 36.7029 7.90323 35.9157 7.90323 34.9978ZM11.2903 34.9978V29.3527H27.0968V34.9978C27.0968 39.3563 23.5504 42.9011 19.1935 42.9011C14.8367 42.9011 11.2903 39.3563 11.2903 34.9978ZM19.1935 45.1591C20.3827 45.1591 21.5194 44.9436 22.5806 44.5665V46.2881C22.5806 48.1559 21.0608 49.6752 19.1935 49.6752C17.3263 49.6752 15.8065 48.1559 15.8065 46.2881V44.5665C16.8677 44.9436 18.0044 45.1591 19.1935 45.1591ZM2.25806 54.0337C2.25806 52.1841 3.43671 50.5479 5.19256 49.9636L9.03226 48.6829V50.9978C9.03226 52.7553 8.34811 54.4086 7.10496 55.6512L6.77419 55.9825V63.2236H2.25806V54.0337ZM58.7097 54.5111L56.2438 55.3452L56.0982 55.9527C55.7945 57.2229 55.2923 58.4346 54.607 59.551L54.2795 60.083L55.4334 62.4188L53.3865 64.4657L51.0512 63.3107L50.5198 63.6382C49.4018 64.3256 48.1917 64.8284 46.9204 65.1305L46.3129 65.2755L45.4799 67.7398H42.5846L41.7516 65.2744L41.1441 65.1294C40.4974 64.9751 39.3579 64.4883 38.3882 64.0423V61.4953C40.0443 62.6029 42.0013 63.2236 44.0323 63.2236C49.6355 63.2236 54.1936 58.6651 54.1936 53.0623C54.1936 47.4602 49.6355 42.9011 44.0323 42.9011C40.2262 42.9011 36.7807 45.0373 35.0441 48.3362C34.6852 48.1344 34.3114 47.9547 33.9096 47.8207L32.9454 47.4988C33.103 47.1845 33.2728 46.8753 33.4564 46.5754L33.7839 46.0423L32.63 43.7065L34.6769 41.6596L37.0122 42.8145L37.5436 42.487C38.6616 41.7996 39.8717 41.2968 41.143 40.9942L41.7505 40.8497L42.5846 38.3849H45.4799L46.3129 40.8508L46.9204 40.9953C48.1906 41.2979 49.4007 41.8007 50.5198 42.4881L51.0512 42.8156L53.3865 41.6607L55.4334 43.7076L54.2795 46.0434L54.607 46.5754C55.2923 47.6917 55.7956 48.9018 56.0982 50.1736L56.2438 50.7806L58.7097 51.6141V54.5111Z" fill="#43ACE1"/>
<path d="M21.4516 54.1914H25.9677V56.4495H21.4516V54.1914Z" fill="#43ACE1"/>
</svg>
