<svg width="62" height="62" viewBox="0 0 62 62" fill="none" xmlns="http://www.w3.org/2000/svg">
<path d="M58.368 8.12659H20.189C19.5207 8.12659 18.9786 8.66867 18.9786 9.33752C18.9786 10.0059 19.5207 10.548 20.189 10.548H58.368C59.0355 10.548 59.5785 11.091 59.5785 11.7584V45.6178C59.5785 46.2852 59.0355 46.8283 58.368 46.8283H3.63186C2.96443 46.8283 2.4214 46.2852 2.4214 45.6178V11.7584C2.4214 11.091 2.96443 10.548 3.63186 10.548H9.49118C10.1596 10.548 10.7016 10.0059 10.7016 9.33752C10.7016 8.66867 10.1596 8.12659 9.49118 8.12659H3.63186C1.62909 8.12659 0 9.75615 0 11.7584V45.6178C0 47.1986 1.01605 48.5463 2.42897 49.0439V50.3362C2.42897 52.2302 3.97007 53.7708 5.86357 53.7708H56.1363C58.0303 53.7708 59.5709 52.2302 59.5709 50.3362V49.0439C60.9838 48.5468 61.9999 47.1986 61.9999 45.6178V11.7584C61.9999 9.75615 60.3708 8.12659 58.368 8.12659ZM56.1363 51.3494H5.86357C5.30494 51.3494 4.85036 50.8948 4.85036 50.3362V49.2497H57.1495V50.3362C57.1495 50.8948 56.6949 51.3494 56.1363 51.3494Z" fill="#43ACE1"/>
<path d="M5.45581 14.9074C5.59014 14.9074 5.72637 14.8847 5.85977 14.8374C6.49031 14.6141 6.82 13.9221 6.59674 13.292L6.58728 13.2655C6.36401 12.6354 5.67198 12.3053 5.04191 12.529C4.41185 12.7518 4.08168 13.4438 4.30542 14.0744L4.3144 14.1004C4.49037 14.5971 4.95724 14.9074 5.45581 14.9074Z" fill="#43ACE1"/>
<path d="M51.5395 27.3927C50.9084 27.6131 50.5754 28.3038 50.7963 28.9348L50.8058 28.9613C50.9799 29.4603 51.4482 29.7725 51.9481 29.7725C52.0811 29.7725 52.2159 29.7507 52.3478 29.7044C52.9793 29.4839 53.3119 28.7933 53.091 28.1619L53.082 28.1358C52.8611 27.5048 52.1709 27.1718 51.5395 27.3927Z" fill="#43ACE1"/>
<path d="M13.7668 9.75469C13.9428 10.2514 14.4096 10.5617 14.9082 10.5617C15.0421 10.5617 15.1788 10.539 15.3122 10.4917C15.9427 10.2684 16.2724 9.57636 16.0491 8.9463L16.0397 8.91981C15.8164 8.28974 15.1244 7.96005 14.4943 8.18331C13.8642 8.40658 13.5341 9.09861 13.7573 9.72867L13.7668 9.75469Z" fill="#43ACE1"/>
<path d="M4.30544 44.1907L4.3149 44.2172C4.49039 44.7139 4.95727 45.0242 5.45583 45.0242C5.59017 45.0242 5.7264 45.0015 5.85979 44.9542C6.49033 44.7309 6.8205 44.0389 6.59676 43.4088L6.58778 43.3823C6.36451 42.7523 5.672 42.4221 5.04241 42.6454C4.41187 42.8686 4.0817 43.5607 4.30544 44.1907Z" fill="#43ACE1"/>
<path d="M57.8032 43.387C57.5823 42.756 56.8927 42.423 56.2607 42.6439C55.6297 42.8648 55.2972 43.5549 55.5181 44.1864L55.5271 44.2124C55.7016 44.7115 56.1694 45.0241 56.6699 45.0241C56.8023 45.0241 56.9371 45.0019 57.0696 44.9555C57.7006 44.7351 58.0331 44.0445 57.8127 43.4135L57.8032 43.387Z" fill="#43ACE1"/>
<path d="M56.6652 12.4855H37.2954C36.6266 12.4855 36.0845 13.0276 36.0845 13.6959V23.5022C36.0845 24.171 36.6266 24.7131 37.2954 24.7131H56.6652C57.3336 24.7131 57.8757 24.171 57.8757 23.5022V13.6959C57.8757 13.0276 57.3336 12.4855 56.6652 12.4855ZM55.4547 22.2917H38.5059V14.9069H55.4547V22.2917Z" fill="#43ACE1"/>
<path d="M37.2954 29.8804H46.4356C47.104 29.8804 47.6461 29.3383 47.6461 28.6694C47.6461 28.0011 47.104 27.459 46.4356 27.459H37.2954C36.6266 27.459 36.0845 28.0011 36.0845 28.6694C36.0845 29.3383 36.6266 29.8804 37.2954 29.8804Z" fill="#43ACE1"/>
<path d="M37.2954 34.7368H51.944C52.6123 34.7368 53.1544 34.1947 53.1544 33.5264C53.1544 32.8575 52.6123 32.3154 51.944 32.3154H37.2954C36.6266 32.3154 36.0845 32.8575 36.0845 33.5264C36.0845 34.1947 36.6266 34.7368 37.2954 34.7368Z" fill="#43ACE1"/>
<path d="M37.2954 39.5939H46.9801C47.6489 39.5939 48.191 39.0518 48.191 38.3829C48.191 37.7146 47.6489 37.1725 46.9801 37.1725H37.2954C36.6266 37.1725 36.0845 37.7146 36.0845 38.3829C36.0845 39.0518 36.6266 39.5939 37.2954 39.5939Z" fill="#43ACE1"/>
<path d="M43.6736 20.8239C43.9834 20.8239 44.2933 20.7056 44.5298 20.4691L46.6934 18.305C47.1664 17.8325 47.1664 17.0657 46.6934 16.5932C46.2208 16.1201 45.4545 16.1201 44.9815 16.5932L42.8174 18.7572C42.3449 19.2298 42.3449 19.9966 42.8174 20.4691C43.054 20.7056 43.3638 20.8239 43.6736 20.8239Z" fill="#43ACE1"/>
<path d="M47.2667 20.4691C47.5032 20.7056 47.813 20.8239 48.1228 20.8239C48.4327 20.8239 48.742 20.7056 48.9785 20.4691L51.1426 18.305C51.6156 17.8325 51.6156 17.0657 51.1426 16.5932C50.6696 16.1201 49.9033 16.1201 49.4303 16.5932L47.2667 18.7572C46.7936 19.2298 46.7936 19.9966 47.2667 20.4691Z" fill="#43ACE1"/>
<path d="M18.761 14.3302C13.2816 14.3638 8.05891 17.5515 5.70752 22.8806C4.89534 24.7221 4.50368 26.644 4.48901 28.5389C4.48523 28.5881 4.48097 28.6368 4.48097 28.6869C4.48097 28.7527 4.48428 28.8175 4.49043 28.8809C4.57841 34.3074 7.75665 39.4591 13.0389 41.7897C14.8184 42.5749 16.6731 42.967 18.5066 43.0058C18.6045 43.0205 18.7038 43.0309 18.8074 43.0309C18.9072 43.0309 19.0122 43.0228 19.1201 43.0053C24.5173 42.8871 29.6287 39.7145 31.948 34.4588C32.7445 32.6532 33.1376 30.7706 33.1665 28.9116C33.1755 28.8345 33.1807 28.756 33.1807 28.6751C33.1807 28.5914 33.1745 28.5105 33.1646 28.4306C33.0662 23.0145 29.8903 17.876 24.6171 15.5492C22.7193 14.712 20.7359 14.3213 18.7847 14.3302C18.7804 14.3302 18.7752 14.3298 18.771 14.3298C18.7677 14.3298 18.7644 14.3302 18.761 14.3302ZM30.4693 28.6761C29.7252 29.0564 27.9604 29.5318 25.3961 29.5332C24.3351 29.5332 23.2964 29.4471 22.3934 29.2891C22.4629 28.8837 22.462 28.4717 22.3929 28.0701C23.2959 27.9112 24.3342 27.8242 25.3952 27.8237C27.9599 27.8227 29.7252 28.2977 30.4693 28.6761ZM18.806 40.3195C18.4257 39.5755 17.9508 37.8106 17.9493 35.2464C17.9489 34.1745 18.0369 33.1286 18.1977 32.2209C18.604 32.2928 19.0132 32.2928 19.4096 32.2275C19.5704 33.1338 19.6584 34.1787 19.6588 35.2459C19.6598 37.8101 19.1858 39.5755 18.806 40.3195ZM7.19234 28.6855C7.93593 28.3057 9.70125 27.8303 12.2655 27.8289C13.3289 27.8284 14.3667 27.9155 15.2701 28.0739C15.2016 28.4821 15.2058 28.8932 15.2758 29.2901C14.3719 29.4499 13.3312 29.5379 12.266 29.5384C9.70172 29.5393 7.93593 29.0654 7.19234 28.6855ZM19.1395 29.8127C19.1314 29.8151 19.1229 29.8165 19.1144 29.8184C18.8717 29.8742 18.6144 29.8539 18.3817 29.7513C18.2923 29.712 18.2071 29.659 18.1215 29.5904C18.0827 29.5592 18.0425 29.5308 18.0009 29.5053C17.9777 29.4665 17.9527 29.4286 17.9252 29.3922C17.6655 29.0521 17.6116 28.599 17.7833 28.2087C17.8188 28.1288 17.8656 28.0512 17.9262 27.9717C17.9541 27.9353 17.9787 27.8975 18.0018 27.8587C18.0392 27.8341 18.0761 27.8085 18.1106 27.7797C18.455 27.4968 18.9209 27.432 19.3258 27.6108C19.3996 27.6435 19.4701 27.6837 19.5363 27.731C19.559 27.7471 19.5827 27.7603 19.6059 27.7745C19.664 27.8251 19.7161 27.8809 19.7629 27.941C19.7681 27.9481 19.7724 27.9561 19.778 27.9637C19.8031 27.9959 19.8249 28.0304 19.8462 28.0649C20.0344 28.3833 20.0732 28.7844 19.9129 29.1481C19.77 29.4717 19.499 29.6983 19.1858 29.7981C19.1702 29.8028 19.1551 29.809 19.1395 29.8127ZM18.1679 25.1251C18.0075 24.2211 17.92 23.1814 17.9195 22.1152C17.9186 19.5505 18.3921 17.7852 18.7719 17.0411C19.1522 17.7847 19.6276 19.55 19.6286 22.1143C19.629 23.1701 19.5434 24.2051 19.3864 25.1062C18.9767 25.0423 18.5647 25.0504 18.1679 25.1251ZM16.1731 17.0544C16.1675 17.0714 16.1618 17.0875 16.1566 17.1045C15.7313 18.4607 15.4972 20.2402 15.4981 22.1162C15.4986 23.3962 15.6088 24.627 15.8136 25.7116C14.7399 25.513 13.5256 25.4075 12.2646 25.408C10.5338 25.4084 8.66486 25.6095 7.19092 26.0872C7.35837 25.3351 7.60056 24.5892 7.92316 23.8583C9.49974 20.2842 12.6302 17.8689 16.1731 17.0544ZM7.20464 31.2876C8.67668 31.7616 10.5409 31.9603 12.2674 31.9598C13.5379 31.9588 14.7616 31.8505 15.8411 31.6485C15.6367 32.7341 15.5279 33.9664 15.5284 35.2473C15.5289 36.9682 15.7271 38.8262 16.1992 40.2959C15.4631 40.1294 14.7323 39.8905 14.0162 39.5745C10.4297 37.9922 8.01067 34.8457 7.20464 31.2876ZM21.4071 40.3011C21.4119 40.2859 21.4166 40.2717 21.4213 40.2566C21.847 38.9004 22.0807 37.1205 22.0798 35.2449C22.0793 33.9616 21.9691 32.7237 21.7628 31.6358C22.857 31.8439 24.1038 31.9551 25.3971 31.9546C27.1227 31.9536 28.9868 31.754 30.4584 31.2791C30.2914 32.0218 30.0511 32.7592 29.7328 33.4815C28.1444 37.0807 24.9808 39.504 21.4071 40.3011ZM30.4556 26.0735C28.9835 25.6 27.1198 25.4018 25.3942 25.4028C24.0911 25.4032 22.8347 25.5168 21.7345 25.7296C21.9407 24.6393 22.0504 23.3986 22.05 22.1138C22.049 20.2378 21.8139 18.4583 21.3873 17.1022C21.3788 17.0747 21.3693 17.0487 21.3608 17.0217C22.1294 17.1892 22.8924 17.4352 23.6393 17.7649C27.2329 19.3504 29.6548 22.5069 30.4556 26.0735Z" fill="#43ACE1"/>
</svg>
