<svg width="64" height="64" viewBox="0 0 64 64" fill="none" xmlns="http://www.w3.org/2000/svg">
<g clip-path="url(#clip0)">
<path d="M53.63 49.6206L32.7034 42.7498C32.8154 41.316 32.1899 39.9234 31.0436 39.0547C29.8979 38.186 28.3881 37.9605 27.0377 38.4558L12.4257 25.8296C12.1851 25.6213 11.8643 25.5317 11.5507 25.5843C11.2372 25.6369 10.9633 25.827 10.8044 26.1025L9.16185 28.9554C6.23654 27.8623 2.94979 29.044 1.39053 31.75L0.857235 32.6729C0.00417114 34.1504 -0.223417 35.9081 0.224989 37.5548C0.673915 39.2011 1.76134 40.6004 3.24665 41.441L19.5309 49.7883C19.232 51.0429 19.5158 52.3652 20.3032 53.387L16.9446 59.2043C16.729 59.5777 16.7592 60.0444 17.0222 60.3871C17.2847 60.7292 17.7279 60.8797 18.1445 60.7678L21.486 59.872L22.3812 63.2134C22.4927 63.6295 22.8437 63.9373 23.2707 63.9941C23.3171 64.0003 23.3634 64.0035 23.4103 64.004C23.7915 64.004 24.1441 63.8009 24.3352 63.4707L28.9344 55.5041L40.1471 62.7473C41.6179 63.5967 43.3662 63.8269 45.0067 63.3868C46.6472 62.9468 48.0455 61.8724 48.8934 60.4006L49.4267 59.4783L54.2263 51.1643C54.3868 50.8856 54.4133 50.5503 54.2987 50.2498C54.1836 49.9498 53.9394 49.7175 53.6342 49.6175L53.63 49.6206ZM29.525 40.6062C30.5447 41.1952 30.8942 42.4998 30.3046 43.52L25.505 51.8392C24.9123 52.8511 23.6139 53.1943 22.5984 52.6079C21.5828 52.0215 21.2308 50.7252 21.8104 49.706L26.6101 41.3931C26.8918 40.9004 27.3585 40.54 27.9069 40.3926C28.4547 40.2447 29.0391 40.3218 29.5302 40.6062H29.525ZM12.0116 28.2867L22.6927 37.5194L11.0294 29.9871L12.0116 28.2867ZM2.27797 36.9773C1.98268 35.8841 2.13631 34.7186 2.7045 33.7395L3.23779 32.8166C4.40542 30.7933 6.98232 30.085 9.01968 31.2277L24.317 41.1061L20.4262 47.8468L4.26481 39.5672C3.2831 39.0042 2.56753 38.0715 2.27797 36.9773ZM23.7738 60.1735L23.2707 58.2898C23.1181 57.7211 22.5333 57.3831 21.9641 57.5362L20.0793 58.0403L22.0099 54.6979C23.5291 55.34 25.2831 55.0437 26.5064 53.9375L27.1392 54.3448L23.7738 60.1735ZM41.2596 60.9276L27.759 52.2064L31.7576 45.2808L46.0134 52.5913C48.0539 53.7693 48.7533 56.3785 47.5753 58.419L47.042 59.3418C45.8733 61.3635 43.2964 62.0708 41.2596 60.9276ZM49.9438 54.3151C49.46 52.7923 48.4221 51.5075 47.0352 50.7143L41.5293 47.8984L51.7177 51.2429L49.9438 54.3151Z" fill="#43ACE1"/>
<path d="M62.6185 11.741L63.9418 7.65174C64.1033 7.15177 63.8772 6.60858 63.4085 6.37162L59.5848 4.41759L57.6298 0.589742C57.3928 0.121025 56.8496 -0.105521 56.3496 0.0564468L52.2614 1.38448L48.1711 0.0606131C47.6716 -0.100834 47.1284 0.125192 46.8915 0.593908L44.9385 4.41759L41.1106 6.37266C41.0934 6.38204 41.0815 6.39818 41.0648 6.40808H22.3968C19.4533 6.4112 17.0675 8.79697 17.0639 11.741V26.4067C17.0639 26.9957 17.5414 27.4732 18.1305 27.4732C18.72 27.4732 19.1971 26.9957 19.1971 26.4067V11.741C19.1971 9.97345 20.6298 8.54126 22.3968 8.54126H40.8695L41.9048 11.741L40.5815 15.8303C40.4195 16.3298 40.6461 16.873 41.1148 17.1099L44.9426 19.065L46.8977 22.8928C47.1347 23.3616 47.6779 23.5881 48.1778 23.4261L52.2614 22.0976L53.328 22.4429V45.8719C53.328 46.461 53.8056 46.9385 54.3946 46.9385C54.9841 46.9385 55.4612 46.461 55.4612 45.8719V23.1329L56.3522 23.4209C56.8517 23.5829 57.3949 23.3563 57.6318 22.8876L59.5869 19.0598L63.4148 17.1047C63.8835 16.8678 64.11 16.3246 63.9481 15.8246L62.6185 11.741ZM60.4853 12.0691L61.6347 15.622L58.3094 17.3214C58.1094 17.4234 57.9469 17.5864 57.8454 17.7864L56.1439 21.1117L52.59 19.9623C52.377 19.8925 52.1473 19.8925 51.9343 19.9623L48.3804 21.1117L46.6811 17.7864C46.579 17.5859 46.4165 17.4234 46.216 17.3214L42.8907 15.622L44.0401 12.0691C44.1109 11.8561 44.1109 11.6254 44.0401 11.4124L42.8907 7.85954L46.216 6.16018C46.4165 6.0581 46.579 5.89561 46.6811 5.69563L48.3804 2.36982L51.9343 3.51974C52.1473 3.58901 52.377 3.58901 52.59 3.51974L56.1439 2.36982L57.8433 5.69563C57.9448 5.89509 58.1073 6.0581 58.3073 6.16018L61.6326 7.85954L60.4827 11.4124C60.4139 11.6259 60.4139 11.8556 60.4827 12.0691H60.4853Z" fill="#43ACE1"/>
<path d="M52.2614 6.40808C49.3163 6.40808 46.9284 8.79541 46.9284 11.741C46.9284 14.6861 49.3163 17.074 52.2614 17.074C55.207 17.074 57.5944 14.6861 57.5944 11.741C57.5912 8.79697 55.2055 6.41121 52.2614 6.40808ZM52.2614 14.9408C50.4943 14.9408 49.0616 13.5081 49.0616 11.741C49.0616 9.97345 50.4943 8.54126 52.2614 8.54126C54.029 8.54126 55.4612 9.97345 55.4612 11.741C55.4612 13.5081 54.029 14.9408 52.2614 14.9408Z" fill="#43ACE1"/>
<path d="M26.6632 27.7399H44.7952C45.3848 27.7399 45.8618 27.2623 45.8618 26.6733C45.8618 26.0843 45.3848 25.6067 44.7952 25.6067H26.6632C26.0742 25.6067 25.5966 26.0843 25.5966 26.6733C25.5966 27.2623 26.0742 27.7399 26.6632 27.7399Z" fill="#43ACE1"/>
<path d="M44.7952 30.9397H29.863C29.274 30.9397 28.7964 31.4173 28.7964 32.0063C28.7964 32.5953 29.274 33.0729 29.863 33.0729H44.7952C45.3848 33.0729 45.8618 32.5953 45.8618 32.0063C45.8618 31.4173 45.3848 30.9397 44.7952 30.9397Z" fill="#43ACE1"/>
<path d="M44.7952 36.2726H37.3291C36.7401 36.2726 36.2625 36.7502 36.2625 37.3392C36.2625 37.9282 36.7401 38.4058 37.3291 38.4058H44.7952C45.3848 38.4058 45.8618 37.9282 45.8618 37.3392C45.8618 36.7502 45.3848 36.2726 44.7952 36.2726Z" fill="#43ACE1"/>
<path d="M28.7964 17.074H35.1959C35.7855 17.074 36.2625 16.5964 36.2625 16.0074C36.2625 15.4184 35.7855 14.9408 35.1959 14.9408H28.7964C27.0293 14.9408 25.5966 16.373 25.5966 18.1406C25.5966 19.9076 27.0293 21.3403 28.7964 21.3403H35.1959C35.7855 21.3403 36.2625 20.8628 36.2625 20.2737C36.2625 19.6847 35.7855 19.2072 35.1959 19.2072H28.7964C28.2074 19.2072 27.7298 18.7296 27.7298 18.1406C27.7298 17.5515 28.2074 17.074 28.7964 17.074Z" fill="#43ACE1"/>
</g>
<defs>
<clipPath id="clip0">
<rect width="64" height="64" fill="white"/>
</clipPath>
</defs>
</svg>
